<?xml version="1.0" encoding="UTF-8" standalone="no"?>
<!DOCTYPE svg PUBLIC "-//W3C//DTD SVG 1.1//EN"
 "http://www.w3.org/Graphics/SVG/1.1/DTD/svg11.dtd">
<!-- Generated by graphviz version 12.2.1 (20241206.2353)
 -->
<!-- Title: G Pages: 1 -->
<svg width="2247pt" height="188pt"
 viewBox="0.00 0.00 2247.25 188.00" xmlns="http://www.w3.org/2000/svg" xmlns:xlink="http://www.w3.org/1999/xlink">
<g id="graph0" class="graph" transform="scale(1 1) rotate(0) translate(4 184)">
<title>G</title>
<polygon fill="white" stroke="none" points="-4,4 -4,-184 2243.25,-184 2243.25,4 -4,4"/>
<!-- https://www.hunter.cuny.edu -->
<g id="node1" class="node">
<title>https://www.hunter.cuny.edu</title>
<ellipse fill="none" stroke="black" cx="1685.68" cy="-162" rx="62.1" ry="18"/>
<text text-anchor="middle" x="1685.68" y="-156.95" font-family="Times New Roman,serif" font-size="14.00">Hunter Home</text>
</g>
<!-- /about -->
<g id="node2" class="node">
<title>/about</title>
<ellipse fill="none" stroke="black" cx="631.68" cy="-90" rx="33.95" ry="18"/>
<text text-anchor="middle" x="631.68" y="-84.95" font-family="Times New Roman,serif" font-size="14.00">About</text>
</g>
<!-- https://www.hunter.cuny.edu&#45;&gt;/about -->
<g id="edge1" class="edge">
<title>https://www.hunter.cuny.edu&#45;&gt;/about</title>
<path fill="none" stroke="black" d="M1625.61,-157.01C1434.77,-144.34 844.98,-105.17 676.84,-94"/>
<polygon fill="black" stroke="black" points="677.2,-90.52 666.99,-93.34 676.73,-97.5 677.2,-90.52"/>
</g>
<!-- /academics -->
<g id="node3" class="node">
<title>/academics</title>
<ellipse fill="none" stroke="black" cx="1406.68" cy="-90" rx="52.38" ry="18"/>
<text text-anchor="middle" x="1406.68" y="-84.95" font-family="Times New Roman,serif" font-size="14.00">Academics</text>
</g>
<!-- https://www.hunter.cuny.edu&#45;&gt;/academics -->
<g id="edge2" class="edge">
<title>https://www.hunter.cuny.edu&#45;&gt;/academics</title>
<path fill="none" stroke="black" d="M1639.92,-149.52C1590.23,-137.05 1511.01,-117.18 1458.92,-104.11"/>
<polygon fill="black" stroke="black" points="1459.93,-100.75 1449.38,-101.71 1458.23,-107.54 1459.93,-100.75"/>
</g>
<!-- /admissions -->
<g id="node4" class="node">
<title>/admissions</title>
<ellipse fill="none" stroke="black" cx="1568.68" cy="-90" rx="54.93" ry="18"/>
<text text-anchor="middle" x="1568.68" y="-84.95" font-family="Times New Roman,serif" font-size="14.00">Admissions</text>
</g>
<!-- https://www.hunter.cuny.edu&#45;&gt;/admissions -->
<g id="edge3" class="edge">
<title>https://www.hunter.cuny.edu&#45;&gt;/admissions</title>
<path fill="none" stroke="black" d="M1659.42,-145.29C1643.02,-135.47 1621.68,-122.71 1603.83,-112.03"/>
<polygon fill="black" stroke="black" points="1605.73,-109.08 1595.35,-106.95 1602.13,-115.09 1605.73,-109.08"/>
</g>
<!-- /students -->
<g id="node5" class="node">
<title>/students</title>
<ellipse fill="none" stroke="black" cx="1685.68" cy="-90" rx="43.67" ry="18"/>
<text text-anchor="middle" x="1685.68" y="-84.95" font-family="Times New Roman,serif" font-size="14.00">/students</text>
</g>
<!-- https://www.hunter.cuny.edu&#45;&gt;/students -->
<g id="edge4" class="edge">
<title>https://www.hunter.cuny.edu&#45;&gt;/students</title>
<path fill="none" stroke="black" d="M1685.68,-143.7C1685.68,-136.41 1685.68,-127.73 1685.68,-119.54"/>
<polygon fill="black" stroke="black" points="1689.18,-119.62 1685.68,-109.62 1682.18,-119.62 1689.18,-119.62"/>
</g>
<!-- /office&#45;of&#45;the&#45;president -->
<g id="node6" class="node">
<title>/office&#45;of&#45;the&#45;president</title>
<ellipse fill="none" stroke="black" cx="1844.68" cy="-90" rx="96.9" ry="18"/>
<text text-anchor="middle" x="1844.68" y="-84.95" font-family="Times New Roman,serif" font-size="14.00">/office&#45;of&#45;the&#45;president</text>
</g>
<!-- https://www.hunter.cuny.edu&#45;&gt;/office&#45;of&#45;the&#45;president -->
<g id="edge5" class="edge">
<title>https://www.hunter.cuny.edu&#45;&gt;/office&#45;of&#45;the&#45;president</title>
<path fill="none" stroke="black" d="M1718.63,-146.5C1741.47,-136.44 1772.23,-122.9 1797.65,-111.71"/>
<polygon fill="black" stroke="black" points="1799.04,-114.92 1806.79,-107.68 1796.22,-108.51 1799.04,-114.92"/>
</g>
<!-- /capital&#45;projects -->
<g id="node7" class="node">
<title>/capital&#45;projects</title>
<ellipse fill="none" stroke="black" cx="2029.68" cy="-90" rx="70.29" ry="18"/>
<text text-anchor="middle" x="2029.68" y="-84.95" font-family="Times New Roman,serif" font-size="14.00">/capital&#45;projects</text>
</g>
<!-- https://www.hunter.cuny.edu&#45;&gt;/capital&#45;projects -->
<g id="edge6" class="edge">
<title>https://www.hunter.cuny.edu&#45;&gt;/capital&#45;projects</title>
<path fill="none" stroke="black" d="M1736.04,-151.16C1789.38,-140.67 1876.03,-123.5 1950.68,-108 1955.82,-106.93 1961.14,-105.82 1966.49,-104.68"/>
<polygon fill="black" stroke="black" points="1966.9,-108.17 1975.96,-102.67 1965.45,-101.33 1966.9,-108.17"/>
</g>
<!-- /hunter&#45;green -->
<g id="node8" class="node">
<title>/hunter&#45;green</title>
<ellipse fill="none" stroke="black" cx="2178.68" cy="-90" rx="60.56" ry="18"/>
<text text-anchor="middle" x="2178.68" y="-84.95" font-family="Times New Roman,serif" font-size="14.00">/hunter&#45;green</text>
</g>
<!-- https://www.hunter.cuny.edu&#45;&gt;/hunter&#45;green -->
<g id="edge7" class="edge">
<title>https://www.hunter.cuny.edu&#45;&gt;/hunter&#45;green</title>
<path fill="none" stroke="black" d="M1744.51,-155.76C1826.51,-147.97 1979.65,-131.67 2108.68,-108 2113.52,-107.11 2118.52,-106.1 2123.52,-105.01"/>
<polygon fill="black" stroke="black" points="2123.95,-108.51 2132.93,-102.89 2122.41,-101.68 2123.95,-108.51"/>
</g>
<!-- /about/mission -->
<g id="node9" class="node">
<title>/about/mission</title>
<ellipse fill="none" stroke="black" cx="65.68" cy="-18" rx="65.68" ry="18"/>
<text text-anchor="middle" x="65.68" y="-12.95" font-family="Times New Roman,serif" font-size="14.00">/about/mission</text>
</g>
<!-- /about&#45;&gt;/about/mission -->
<g id="edge8" class="edge">
<title>/about&#45;&gt;/about/mission</title>
<path fill="none" stroke="black" d="M597.79,-86.74C517.7,-81.1 310.61,-64.74 139.68,-36 134.72,-35.17 129.6,-34.2 124.47,-33.17"/>
<polygon fill="black" stroke="black" points="125.27,-29.76 114.77,-31.12 123.83,-36.61 125.27,-29.76"/>
</g>
<!-- /about/strategic&#45;plan -->
<g id="node10" class="node">
<title>/about/strategic&#45;plan</title>
<ellipse fill="none" stroke="black" cx="235.68" cy="-18" rx="86.67" ry="18"/>
<text text-anchor="middle" x="235.68" y="-12.95" font-family="Times New Roman,serif" font-size="14.00">/about/strategic&#45;plan</text>
</g>
<!-- /about&#45;&gt;/about/strategic&#45;plan -->
<g id="edge9" class="edge">
<title>/about&#45;&gt;/about/strategic&#45;plan</title>
<path fill="none" stroke="black" d="M599.71,-83.36C544.87,-73.67 429.33,-53.27 331.68,-36 325.04,-34.82 318.13,-33.6 311.21,-32.38"/>
<polygon fill="black" stroke="black" points="311.92,-28.95 301.46,-30.65 310.7,-35.84 311.92,-28.95"/>
</g>
<!-- /about/accreditation -->
<g id="node11" class="node">
<title>/about/accreditation</title>
<ellipse fill="none" stroke="black" cx="424.68" cy="-18" rx="84.11" ry="18"/>
<text text-anchor="middle" x="424.68" y="-12.95" font-family="Times New Roman,serif" font-size="14.00">/about/accreditation</text>
</g>
<!-- /about&#45;&gt;/about/accreditation -->
<g id="edge10" class="edge">
<title>/about&#45;&gt;/about/accreditation</title>
<path fill="none" stroke="black" d="M603.77,-79.56C571.92,-68.79 519.09,-50.93 479.04,-37.38"/>
<polygon fill="black" stroke="black" points="480.41,-34.15 469.81,-34.26 478.16,-40.78 480.41,-34.15"/>
</g>
<!-- /about/facts&#45;and&#45;statistics -->
<g id="node12" class="node">
<title>/about/facts&#45;and&#45;statistics</title>
<ellipse fill="none" stroke="black" cx="631.68" cy="-18" rx="105.09" ry="18"/>
<text text-anchor="middle" x="631.68" y="-12.95" font-family="Times New Roman,serif" font-size="14.00">/about/facts&#45;and&#45;statistics</text>
</g>
<!-- /about&#45;&gt;/about/facts&#45;and&#45;statistics -->
<g id="edge11" class="edge">
<title>/about&#45;&gt;/about/facts&#45;and&#45;statistics</title>
<path fill="none" stroke="black" d="M631.68,-71.7C631.68,-64.41 631.68,-55.73 631.68,-47.54"/>
<polygon fill="black" stroke="black" points="635.18,-47.62 631.68,-37.62 628.18,-47.62 635.18,-47.62"/>
</g>
<!-- /about/campus&#45;information -->
<g id="node13" class="node">
<title>/about/campus&#45;information</title>
<ellipse fill="none" stroke="black" cx="866.68" cy="-18" rx="112.26" ry="18"/>
<text text-anchor="middle" x="866.68" y="-12.95" font-family="Times New Roman,serif" font-size="14.00">/about/campus&#45;information</text>
</g>
<!-- /about&#45;&gt;/about/campus&#45;information -->
<g id="edge12" class="edge">
<title>/about&#45;&gt;/about/campus&#45;information</title>
<path fill="none" stroke="black" d="M660.97,-80.28C696.62,-69.66 757.81,-51.43 804.21,-37.61"/>
<polygon fill="black" stroke="black" points="805.03,-41.02 813.61,-34.81 803.03,-34.31 805.03,-41.02"/>
</g>
<!-- /about/contact -->
<g id="node14" class="node">
<title>/about/contact</title>
<ellipse fill="none" stroke="black" cx="1059.68" cy="-18" rx="63.12" ry="18"/>
<text text-anchor="middle" x="1059.68" y="-12.95" font-family="Times New Roman,serif" font-size="14.00">/about/contact</text>
</g>
<!-- /about&#45;&gt;/about/contact -->
<g id="edge13" class="edge">
<title>/about&#45;&gt;/about/contact</title>
<path fill="none" stroke="black" d="M664.72,-85.02C727.79,-77.23 869.56,-58.7 987.68,-36 992.49,-35.08 997.47,-34.05 1002.46,-32.97"/>
<polygon fill="black" stroke="black" points="1002.85,-36.47 1011.85,-30.88 1001.33,-29.64 1002.85,-36.47"/>
</g>
<!-- /academics/majors -->
<g id="node17" class="node">
<title>/academics/majors</title>
<ellipse fill="none" stroke="black" cx="1221.68" cy="-18" rx="80.52" ry="18"/>
<text text-anchor="middle" x="1221.68" y="-12.95" font-family="Times New Roman,serif" font-size="14.00">/academics/majors</text>
</g>
<!-- /academics&#45;&gt;/academics/majors -->
<g id="edge16" class="edge">
<title>/academics&#45;&gt;/academics/majors</title>
<path fill="none" stroke="black" d="M1372.32,-76C1344.06,-65.31 1303.63,-50.01 1271.77,-37.95"/>
<polygon fill="black" stroke="black" points="1273.33,-34.8 1262.74,-34.53 1270.85,-41.35 1273.33,-34.8"/>
</g>
<!-- /academics/advising -->
<g id="node18" class="node">
<title>/academics/advising</title>
<ellipse fill="none" stroke="black" cx="1406.68" cy="-18" rx="86.15" ry="18"/>
<text text-anchor="middle" x="1406.68" y="-12.95" font-family="Times New Roman,serif" font-size="14.00">/academics/advising</text>
</g>
<!-- /academics&#45;&gt;/academics/advising -->
<g id="edge17" class="edge">
<title>/academics&#45;&gt;/academics/advising</title>
<path fill="none" stroke="black" d="M1406.68,-71.7C1406.68,-64.41 1406.68,-55.73 1406.68,-47.54"/>
<polygon fill="black" stroke="black" points="1410.18,-47.62 1406.68,-37.62 1403.18,-47.62 1410.18,-47.62"/>
</g>
<!-- /admissions/undergrad -->
<g id="node15" class="node">
<title>/admissions/undergrad</title>
<ellipse fill="none" stroke="black" cx="1605.68" cy="-18" rx="94.86" ry="18"/>
<text text-anchor="middle" x="1605.68" y="-12.95" font-family="Times New Roman,serif" font-size="14.00">/admissions/undergrad</text>
</g>
<!-- /admissions&#45;&gt;/admissions/undergrad -->
<g id="edge14" class="edge">
<title>/admissions&#45;&gt;/admissions/undergrad</title>
<path fill="none" stroke="black" d="M1577.64,-72.05C1581.71,-64.35 1586.64,-55.03 1591.22,-46.36"/>
<polygon fill="black" stroke="black" points="1594.26,-48.09 1595.84,-37.61 1588.08,-44.82 1594.26,-48.09"/>
</g>
<!-- /admissions/grad -->
<g id="node16" class="node">
<title>/admissions/grad</title>
<ellipse fill="none" stroke="black" cx="1792.68" cy="-18" rx="73.87" ry="18"/>
<text text-anchor="middle" x="1792.68" y="-12.95" font-family="Times New Roman,serif" font-size="14.00">/admissions/grad</text>
</g>
<!-- /admissions&#45;&gt;/admissions/grad -->
<g id="edge15" class="edge">
<title>/admissions&#45;&gt;/admissions/grad</title>
<path fill="none" stroke="black" d="M1607.44,-76.89C1643.46,-65.63 1697.47,-48.75 1737.89,-36.12"/>
<polygon fill="black" stroke="black" points="1738.7,-39.54 1747.2,-33.21 1736.61,-32.86 1738.7,-39.54"/>
</g>
</g>
</svg>
